<?xml version="1.0" encoding="utf-8"?>
<svg viewBox="83.473 44.615 312.23 371.147" xmlns="http://www.w3.org/2000/svg">
  <g transform="matrix(0.1, 0, 0, -0.1, -575.508859, 394.74848)" fill="#000000" stroke="none">
    <path d="M8060 3143 c-447 -32 -866 -315 -1069 -721 -45 -89 -97 -251 -116 -356 -19 -114 -19 -328 0 -442 29 -162 115 -382 197 -501 l29 -42 -28 -53 c-25 -47 -28 -64 -28 -148 0 -80 4 -102 23 -138 62 -117 146 -169 293 -180 l94 -7 7 -55 c3 -30 6 -116 7 -190 1 -113 4 -140 20 -166 18 -30 21 -31 117 -37 125 -9 1139 -7 1178 2 16 3 38 18 50 34 18 25 21 45 24 217 l4 190 47 0 c133 0 228 35 291 107 90 102 110 234 53 356 l-32 68 46 72 c61 93 125 245 159 377 26 97 28 121 28 300 1 213 -7 277 -56 425 -60 180 -161 347 -296 487 -108 113 -210 190 -338 255 -173 89 -297 125 -481 143 -105 10 -129 10 -223 3z m291 -228 c344 -60 649 -295 795 -611 19 -40 45 -118 60 -173 25 -96 26 -111 21 -299 -3 -148 -8 -213 -22 -262 -30 -109 -91 -246 -142 -320 -103 -151 -115 -173 -109 -209 3 -22 22 -51 56 -86 58 -62 64 -97 27 -141 -22 -26 -28 -27 -173 -35 -82 -5 -159 -11 -172 -14 -40 -10 -50 -56 -58 -257 l-7 -185 -90 -7 c-49 -4 -92 -5 -94 -2 -3 3 -7 44 -10 93 -4 70 -10 93 -26 110 -27 30 -84 31 -121 2 -24 -19 -26 -26 -26 -98 0 -108 -5 -114 -105 -104 l-80 8 -6 84 c-6 76 -9 87 -33 108 -37 31 -89 31 -121 -2 -22 -21 -25 -33 -25 -97 0 -40 -4 -79 -9 -87 -10 -15 -133 -28 -174 -17 l-24 6 -6 192 c-3 106 -9 201 -12 211 -14 35 -59 47 -202 53 -76 3 -147 10 -159 16 -30 14 -57 64 -49 89 4 12 31 48 61 80 70 77 72 103 9 191 -161 228 -230 409 -242 639 -9 179 26 353 108 537 89 197 274 385 486 491 81 40 200 80 288 96 96 18 285 18 386 0z"/>
    <path d="M7503 1900 c-67 -33 -140 -106 -176 -174 -19 -35 -22 -58 -22 -151 0 -101 3 -114 28 -163 77 -148 229 -224 382 -192 80 16 128 42 191 102 77 73 99 129 99 253 0 84 -4 107 -23 146 -29 60 -107 138 -174 174 -46 25 -66 30 -148 33 -90 3 -98 2 -157 -28z"/>
    <path d="M8570 1921 c-198 -65 -302 -262 -241 -458 61 -197 249 -294 453 -233 93 27 192 128 223 228 25 79 17 209 -18 277 -31 61 -97 124 -169 161 -43 22 -69 28 -138 30 -47 2 -96 0 -110 -5z"/>
    <path d="M8061 1160 c-86 -37 -169 -162 -158 -241 7 -52 49 -97 98 -105 30 -5 41 -1 72 26 23 20 41 47 47 71 18 67 67 64 83 -4 11 -44 67 -97 103 -97 38 0 82 27 99 60 39 76 -11 210 -99 265 -44 26 -59 30 -135 32 -47 2 -97 -2 -110 -7z"/>
  </g>
</svg>